<?xml version="1.0" encoding="utf-8"?>
<!-- Generator: Adobe Illustrator 22.0.0, SVG Export Plug-In . SVG Version: 6.00 Build 0)  -->
<svg version="1.1" id="Layer_1" xmlns="http://www.w3.org/2000/svg" xmlns:xlink="http://www.w3.org/1999/xlink" x="0px" y="0px"
	 viewBox="0 0 720 720" style="enable-background:new 0 0 720 720;" xml:space="preserve">
<style type="text/css">
	.st0{fill:#FFFFFF;}
</style>
<g>
	<path class="st0" d="M597.3,340.8c0.5,1.7,0.9,3.3,1.3,5C598.2,344.2,597.8,342.5,597.3,340.8z M598.6,380.1
		c-0.4,1.7-0.8,3.4-1.3,5C597.8,383.5,598.2,381.8,598.6,380.1z M130.7,340.8c-0.5,1.7-0.9,3.3-1.3,5
		C129.8,344.2,130.2,342.5,130.7,340.8z M130.7,385.2c-0.5-1.7-0.9-3.3-1.3-5C129.8,381.8,130.2,383.5,130.7,385.2z"/>
	<path class="st0" d="M503.8,233.1l40.1-64.3L526,157.6l-42.7,68.3c-6.4-2-13-3.9-19.8-5.6l45.3-72.5L491,136.6l-49.3,78.9
		c-6.8-1.3-13.7-2.4-20.8-3.3l54-86.4L457,114.6l-59.4,95.1c-10.7-0.8-21.6-1.2-32.6-1.2c-141.1,0-255.5,68.7-255.5,153.5
		c0,54.3,47,102.1,117.8,129.3L186,557.5l17.9,11.2l43.9-70.2c6.3,2,12.8,3.8,19.5,5.4L219.7,580l17.9,11.2l51.6-82.5
		c6.9,1.3,14,2.4,21.2,3.3l-55.2,88.4l17.9,11.2l60.7-97.2c10.3,0.8,20.7,1.1,31.3,1.1c141.1,0,255.5-68.7,255.5-153.5
		C620.5,308,574,260.4,503.8,233.1z M597.3,385.2c-0.9,2.9-1.9,5.8-3.1,8.7c-0.3,0.8-0.6,1.5-1,2.3c-5.3,12-13.5,23.3-24.1,33.8
		c-0.5,0.5-1,0.9-1.4,1.4c-2.9,2.8-6,5.5-9.2,8.2c-1.6,1.3-3.3,2.6-5,3.9c-0.6,0.4-1.1,0.9-1.7,1.3c-1.1,0.8-2.3,1.7-3.5,2.5
		c0,0,0,0,0,0c-1.2,0.8-2.4,1.7-3.6,2.5c0,0,0,0,0,0c-1.2,0.8-2.4,1.6-3.7,2.4c-10.9,7-23.1,13.4-36.4,18.9
		c-0.9,0.4-1.8,0.8-2.7,1.1c-5.7,2.3-11.6,4.5-17.7,6.6c-0.5,0.2-1.1,0.4-1.7,0.5c-1.5,0.5-3,1-4.5,1.4c-2.7,0.9-5.4,1.7-8.2,2.5
		c-1.1,0.3-2.2,0.6-3.3,0.9c-1.5,0.4-3,0.8-4.5,1.2c-0.5,0.1-0.9,0.2-1.4,0.3c-1.3,0.3-2.6,0.7-4,1c-2.2,0.5-4.4,1-6.6,1.5
		c-1.4,0.3-2.8,0.6-4.2,0.9c-1.1,0.2-2.2,0.5-3.3,0.7c-0.6,0.1-1.1,0.2-1.7,0.3c-2.3,0.5-4.7,0.9-7.1,1.3c-1.5,0.3-3.1,0.5-4.6,0.8
		c-1.1,0.2-2.2,0.3-3.3,0.5c-1.8,0.3-3.5,0.5-5.3,0.8c-0.3,0-0.5,0.1-0.8,0.1c-1.7,0.2-3.3,0.5-5,0.7c-3.1,0.4-6.2,0.7-9.3,1.1
		c-1.8,0.2-3.5,0.3-5.3,0.5c-0.2,0-0.3,0-0.5,0c-1.9,0.2-3.8,0.3-5.7,0.5c-4.9,0.4-9.9,0.6-14.9,0.8c-2,0.1-4,0.1-6,0.2
		c-3,0.1-6.1,0.1-9.1,0.1s-6.1,0-9.1-0.1c-2,0-4-0.1-6-0.2c-5-0.2-10-0.4-14.9-0.8c-1.9-0.1-3.8-0.3-5.7-0.5c-0.2,0-0.3,0-0.5,0
		c-1.8-0.2-3.5-0.3-5.3-0.5c-3.1-0.3-6.2-0.7-9.3-1.1c-1.7-0.2-3.3-0.4-5-0.7c-0.3,0-0.5-0.1-0.8-0.1c-1.8-0.2-3.5-0.5-5.3-0.8
		c-1.1-0.2-2.2-0.3-3.3-0.5c-1.5-0.3-3.1-0.5-4.6-0.8c-2.4-0.4-4.7-0.9-7.1-1.3c-0.6-0.1-1.1-0.2-1.7-0.3c-1.1-0.2-2.2-0.4-3.3-0.7
		c-1.4-0.3-2.8-0.6-4.2-0.9c-2.2-0.5-4.4-1-6.6-1.5c-1.3-0.3-2.6-0.7-4-1c-0.5-0.1-0.9-0.2-1.4-0.3c-1.5-0.4-3-0.8-4.5-1.2
		c-1.1-0.3-2.2-0.6-3.3-0.9c-2.8-0.8-5.5-1.6-8.2-2.5c-1.5-0.5-3-0.9-4.5-1.4c-0.5-0.2-1.1-0.4-1.7-0.5c-6.1-2-12-4.2-17.7-6.6
		c-0.9-0.4-1.8-0.7-2.7-1.1c-13.3-5.6-25.5-11.9-36.4-18.9c-1.3-0.8-2.5-1.6-3.7-2.4c0,0,0,0,0,0c-1.2-0.8-2.4-1.6-3.6-2.5
		c0,0,0,0,0,0c-1.2-0.8-2.4-1.7-3.5-2.5c-0.6-0.4-1.2-0.9-1.7-1.3c-1.7-1.3-3.4-2.6-5-3.9c-3.3-2.7-6.3-5.4-9.2-8.2
		c-0.5-0.5-1-0.9-1.4-1.4c-10.6-10.5-18.8-21.8-24.1-33.8c-0.3-0.8-0.7-1.5-1-2.3c-1.2-2.9-2.2-5.8-3.1-8.7c-0.5-1.7-0.9-3.3-1.3-5
		c-1.3-5.6-1.9-11.3-1.9-17.1s0.7-11.5,1.9-17.1c0.4-1.7,0.8-3.4,1.3-5c0.9-2.9,1.9-5.8,3.1-8.7c0.3-0.8,0.6-1.5,1-2.3
		c5.3-12,13.5-23.3,24.1-33.8c0.5-0.5,1-0.9,1.4-1.4c2.9-2.8,6-5.5,9.2-8.2c1.6-1.3,3.3-2.6,5-3.9c0.6-0.4,1.1-0.9,1.7-1.3
		c1.1-0.8,2.3-1.7,3.5-2.5c0,0,0,0,0,0c1.2-0.8,2.4-1.7,3.6-2.5c0,0,0,0,0,0c1.2-0.8,2.4-1.6,3.7-2.4c10.9-7,23.1-13.4,36.4-18.9
		c0.9-0.4,1.8-0.8,2.7-1.1c5.7-2.3,11.6-4.5,17.7-6.6c0.5-0.2,1.1-0.4,1.7-0.5c1.5-0.5,3-1,4.5-1.4c2.7-0.9,5.4-1.7,8.2-2.5
		c1.1-0.3,2.2-0.6,3.3-0.9c1.5-0.4,3-0.8,4.5-1.2c0.5-0.1,0.9-0.2,1.4-0.3c1.3-0.3,2.6-0.7,4-1c2.2-0.5,4.4-1,6.6-1.5
		c1.4-0.3,2.8-0.6,4.2-0.9c1.1-0.2,2.2-0.5,3.3-0.7c0.6-0.1,1.1-0.2,1.7-0.3c2.3-0.5,4.7-0.9,7.1-1.3c1.5-0.3,3.1-0.5,4.6-0.8
		c1.1-0.2,2.2-0.3,3.3-0.5c1.8-0.3,3.5-0.5,5.3-0.8c0.3,0,0.5-0.1,0.8-0.1c1.7-0.2,3.3-0.5,5-0.7c3.1-0.4,6.2-0.7,9.3-1.1
		c1.8-0.2,3.5-0.3,5.3-0.5c0.2,0,0.3,0,0.5,0c1.9-0.2,3.8-0.3,5.7-0.5c4.9-0.4,9.9-0.6,14.9-0.8c2-0.1,4-0.1,6-0.2
		c3-0.1,6.1-0.1,9.1-0.1s6.1,0,9.1,0.1c2,0,4,0.1,6,0.2c5,0.2,10,0.4,14.9,0.8c1.9,0.1,3.8,0.3,5.7,0.5c0.2,0,0.3,0,0.5,0
		c1.8,0.2,3.5,0.3,5.3,0.5c3.1,0.3,6.2,0.7,9.3,1.1c1.7,0.2,3.3,0.4,5,0.7c0.3,0,0.5,0.1,0.8,0.1c1.8,0.2,3.5,0.5,5.3,0.8
		c1.1,0.2,2.2,0.3,3.3,0.5c1.5,0.3,3.1,0.5,4.6,0.8c2.4,0.4,4.7,0.9,7.1,1.3c0.6,0.1,1.1,0.2,1.7,0.3c1.1,0.2,2.2,0.4,3.3,0.7
		c1.4,0.3,2.8,0.6,4.2,0.9c2.2,0.5,4.4,1,6.6,1.5c1.3,0.3,2.6,0.7,4,1c0.5,0.1,0.9,0.2,1.4,0.3c1.5,0.4,3,0.8,4.5,1.2
		c1.1,0.3,2.2,0.6,3.3,0.9c2.8,0.8,5.5,1.6,8.2,2.5c1.5,0.5,3,0.9,4.5,1.4c0.5,0.2,1.1,0.4,1.7,0.5c6.1,2,12,4.2,17.7,6.6
		c0.9,0.4,1.8,0.7,2.7,1.1c13.3,5.6,25.5,11.9,36.4,18.9c1.3,0.8,2.5,1.6,3.7,2.4c0,0,0,0,0,0c1.2,0.8,2.4,1.6,3.6,2.5c0,0,0,0,0,0
		c1.2,0.8,2.4,1.7,3.5,2.5c0.6,0.4,1.2,0.9,1.7,1.3c1.7,1.3,3.4,2.6,5,3.9c3.3,2.7,6.3,5.4,9.2,8.2c0.5,0.5,1,0.9,1.4,1.4
		c10.6,10.5,18.8,21.8,24.1,33.8c0.3,0.8,0.7,1.5,1,2.3c1.2,2.9,2.2,5.8,3.1,8.7c0.5,1.7,0.9,3.3,1.3,5c1.3,5.6,1.9,11.3,1.9,17.1
		s-0.7,11.5-1.9,17.1C598.2,381.8,597.8,383.5,597.3,385.2z"/>
</g>
<g>
	<path class="st0" d="M177,406.3l28.1-100.6h56c12.6,0,22.1,1.5,28.4,4.6c7.9,3.7,10.8,9.7,8.5,17.7c-1.8,6.6-7,12.1-15.4,16.4
		c-7.4,3.8-16.4,6.3-26.8,7.2l-0.4,1.3c10.2,0.7,18.2,2.6,23.8,5.6c7.9,4.3,10.7,10.6,8.4,18.8c-2.7,9.6-10.2,16.9-22.7,22.2
		c-10.8,4.5-23.4,6.8-37.9,6.8H177z M235.2,314.4l-9.7,34.7h6.7c4,0,7.6-0.2,10.5-0.7c3-0.5,5.9-1.5,8.7-2.9
		c3.7-1.9,6.7-4.1,8.9-6.8c2.3-2.6,3.8-5.5,4.7-8.5c1.5-5.2,0.5-9.2-2.7-12.1c-3.3-2.8-8.6-4.3-15.9-4.3
		C243,313.8,239.2,314,235.2,314.4z M223.1,357.7l-11.2,40.1h10.8c6.5,0,12.9-1.7,19.1-5.2c6.3-3.5,10.2-8.2,11.9-14.1
		c2.1-7.7,0.5-13.2-5-16.4C244,359.1,235.4,357.7,223.1,357.7z"/>
	<path class="st0" d="M311.9,407l28.3-101.4c2.5,0,5.6,0.1,9.4,0.4c3.8,0.2,6,0.4,6.6,0.4c2.5,0,4.5,0,6.1-0.1
		c6.3-0.4,9.8-0.6,10.4-0.6L344.5,407c-2.5,0-4.5-0.1-6-0.1c-6.1-0.4-9.5-0.6-10-0.6c-2.5,0-5.7,0.1-9.6,0.4
		C314.8,406.9,312.5,407,311.9,407z"/>
	<path class="st0" d="M552.2,355.5c-4.2,15-15.3,27.5-33.2,37.5c-18.9,10.5-41.2,15.8-67.1,15.8c-24.4,0-42.6-4.6-54.6-13.9
		c-12-9.2-15.6-22.2-11-38.8c4.3-15.3,15.2-27.8,32.9-37.6c18.5-10.3,41-15.5,67.5-15.5c28.1,0,47.5,5.9,58.4,17.7
		C553.6,330.2,556,341.8,552.2,355.5z M482.8,311.9c-15.5,0-28.4,3.9-38.7,11.8c-10.8,8.3-18.5,20.5-23.1,36.7
		c-3,10.8-2.1,19.8,2.9,27c5.8,8.4,16.2,12.5,31.4,12.5c15.8,0,29.3-4.8,40.7-14.3c10.2-8.7,17.2-19.6,20.9-32.9
		c3-10.9,2.1-20.1-2.7-27.6C508.4,316.3,498,311.9,482.8,311.9z"/>
</g>
</svg>
