<?xml version="1.0" encoding="utf-8"?>
<!-- Generator: Adobe Illustrator 22.0.0, SVG Export Plug-In . SVG Version: 6.00 Build 0)  -->
<svg version="1.1" id="Layer_1" xmlns="http://www.w3.org/2000/svg" xmlns:xlink="http://www.w3.org/1999/xlink" x="0px" y="0px"
	 viewBox="0 0 720 720" style="enable-background:new 0 0 720 720;" xml:space="preserve">
<style type="text/css">
	.st0{fill:none;stroke:#000000;stroke-miterlimit:10;}
</style>
<g>
	<ellipse class="st0" cx="364" cy="363" rx="236.5" ry="134.5"/>
	<ellipse class="st0" cx="364" cy="363" rx="236.5" ry="134.5"/>
	<g>
		<path d="M503.8,233.1l40.1-64.3L526,157.6l-42.7,68.3c-6.4-2-13-3.9-19.8-5.6l45.3-72.5L491,136.6l-49.3,78.9
			c-6.8-1.3-13.7-2.4-20.8-3.3l54-86.4L457,114.6l-59.4,95.1c-10.7-0.8-21.6-1.2-32.6-1.2c-141.1,0-255.5,68.7-255.5,153.5
			c0,54.3,47,102.1,117.8,129.3L186,557.5l17.9,11.2l43.9-70.2c6.3,2,12.8,3.8,19.5,5.4L219.7,580l17.9,11.2l51.6-82.5
			c6.9,1.3,14,2.4,21.2,3.3l-55.2,88.4l17.9,11.2l60.7-97.2c10.3,0.8,20.7,1.1,31.3,1.1c141.1,0,255.5-68.7,255.5-153.5
			C620.5,308,574,260.4,503.8,233.1z M364,497.5c-130.6,0-236.5-60.2-236.5-134.5S233.4,228.5,364,228.5S600.5,288.7,600.5,363
			S494.6,497.5,364,497.5z"/>
	</g>
	<g>
		<path d="M177,406.3l28.1-100.6h56c12.6,0,22.1,1.5,28.4,4.6c7.9,3.7,10.8,9.7,8.5,17.7c-1.8,6.6-7,12.1-15.4,16.4
			c-7.4,3.8-16.4,6.3-26.8,7.2l-0.4,1.3c10.2,0.7,18.2,2.6,23.8,5.6c7.9,4.3,10.7,10.6,8.4,18.8c-2.7,9.6-10.2,16.9-22.7,22.2
			c-10.8,4.5-23.4,6.8-37.9,6.8H177z M235.2,314.4l-9.7,34.7h6.7c4,0,7.6-0.2,10.5-0.7c3-0.5,5.9-1.5,8.7-2.9
			c3.7-1.9,6.7-4.1,8.9-6.8c2.3-2.6,3.8-5.5,4.7-8.5c1.5-5.2,0.5-9.2-2.7-12.1c-3.3-2.8-8.6-4.3-15.9-4.3
			C243,313.8,239.2,314,235.2,314.4z M223.1,357.7l-11.2,40.1h10.8c6.5,0,12.9-1.7,19.1-5.2c6.3-3.5,10.2-8.2,11.9-14.1
			c2.1-7.7,0.5-13.2-5-16.4C244,359.1,235.4,357.7,223.1,357.7z"/>
		<path d="M311.9,407l28.3-101.4c2.5,0,5.6,0.1,9.4,0.4c3.8,0.2,6,0.4,6.6,0.4c2.5,0,4.5,0,6.1-0.1c6.3-0.4,9.8-0.6,10.4-0.6
			L344.5,407c-2.5,0-4.5-0.1-6-0.1c-6.1-0.4-9.5-0.6-10-0.6c-2.5,0-5.7,0.1-9.6,0.4C314.8,406.9,312.5,407,311.9,407z"/>
		<path d="M552.2,355.5c-4.2,15-15.3,27.5-33.2,37.5c-18.9,10.5-41.2,15.8-67.1,15.8c-24.4,0-42.6-4.6-54.6-13.9
			c-12-9.2-15.6-22.2-11-38.8c4.3-15.3,15.2-27.8,32.9-37.6c18.5-10.3,41-15.5,67.5-15.5c28.1,0,47.5,5.9,58.4,17.7
			C553.6,330.2,556,341.8,552.2,355.5z M482.8,311.9c-15.5,0-28.4,3.9-38.7,11.8c-10.8,8.3-18.5,20.5-23.1,36.7
			c-3,10.8-2.1,19.8,2.9,27c5.8,8.4,16.2,12.5,31.4,12.5c15.8,0,29.3-4.8,40.7-14.3c10.2-8.7,17.2-19.6,20.9-32.9
			c3-10.9,2.1-20.1-2.7-27.6C508.4,316.3,498,311.9,482.8,311.9z"/>
	</g>
</g>
<g>
</g>
<g>
</g>
<g>
</g>
<g>
</g>
<g>
</g>
<g>
</g>
<g>
</g>
<g>
</g>
<g>
</g>
<g>
</g>
<g>
</g>
<g>
</g>
<g>
</g>
<g>
</g>
<g>
</g>
</svg>
